<?xml version="1.0"?>
<svg xmlns="http://www.w3.org/2000/svg" xmlns:xlink="http://www.w3.org/1999/xlink" version="1.1" id="Capa_1" x="0px" y="0px" viewBox="0 0 368 368" style="enable-background:new 0 0 368 368;" xml:space="preserve" width="512px" height="512px" class=""><g transform="matrix(1.05101 0 0 1.05101 -9.38584 -9.38584)"><g>
	<g>
		<path d="M361.096,7.272c-0.04-0.04-0.048-0.096-0.088-0.136c-0.032-0.032-0.064-0.048-0.088-0.08    c-0.024-0.024-0.032-0.048-0.056-0.064c-0.032-0.032-0.072-0.04-0.104-0.064C356.296,2.472,350.368,0,344,0H24    C17.632,0,11.712,2.472,7.248,6.912c-0.032,0.032-0.08,0.04-0.12,0.08c-0.024,0.024-0.04,0.056-0.064,0.08    c-0.024,0.024-0.056,0.04-0.08,0.064c-0.032,0.032-0.04,0.08-0.08,0.12C2.472,11.712,0,17.632,0,24v320    c0,6.368,2.472,12.288,6.912,16.752c0.032,0.032,0.04,0.08,0.08,0.12c0.024,0.024,0.056,0.04,0.08,0.064s0.04,0.056,0.064,0.08    c0.032,0.032,0.08,0.04,0.12,0.08C11.712,365.528,17.632,368,24,368h320c6.368,0,12.296-2.472,16.752-6.92    c0.032-0.032,0.072-0.04,0.104-0.072c0.024-0.024,0.032-0.048,0.056-0.064c0.032-0.032,0.064-0.048,0.088-0.08    c0.04-0.04,0.048-0.096,0.088-0.136C365.536,356.28,368,350.36,368,344V24C368,17.64,365.536,11.72,361.096,7.272z M340.688,16    l-48,48H75.312l-48-48H340.688z M240,176c-2.72,0-5.256,1.384-6.728,3.672L163.632,288H80V80h208v96H240z M288,192v96H182.656    l61.712-96H288z M16,340.688V27.312l48,48v217.376L16,340.688z M27.312,352l48-48h217.376l48,48H27.312z M352,340.688l-48-48    V75.312l48-48V340.688z" data-original="#000000" class="active-path" data-old_color="#000000" fill="#9C9CA2"/>
	</g>
</g><g>
	<g>
		<path d="M152,112c-22.056,0-40,17.944-40,40c0,22.056,17.944,40,40,40c22.056,0,40-17.944,40-40C192,129.944,174.056,112,152,112z     M152,176c-13.232,0-24-10.768-24-24s10.768-24,24-24s24,10.768,24,24S165.232,176,152,176z" data-original="#000000" class="active-path" data-old_color="#000000" fill="#9C9CA2"/>
	</g>
</g></g> </svg>
